<?xml version="1.0" encoding="utf-8"?>
<!-- Generator: Adobe Illustrator 19.2.1, SVG Export Plug-In . SVG Version: 6.00 Build 0)  -->
<!DOCTYPE svg PUBLIC "-//W3C//DTD SVG 1.1//EN" "http://www.w3.org/Graphics/SVG/1.1/DTD/svg11.dtd">
<svg version="1.1" id="Layer_1" xmlns="http://www.w3.org/2000/svg" xmlns:xlink="http://www.w3.org/1999/xlink" x="0px" y="0px"
	 viewBox="0 0 500 500" style="enable-background:new 0 0 500 500;" xml:space="preserve">
<style type="text/css">
	.st0{fill:#FFFFFF;}
</style>
<g>
	<path class="st0" d="M205,198c5.4-2.4,10.8-4.8,16.2-6.6c-31.2-20.4-84-60.6-84-101.4c0-16.8,10.2-49.8,51-49.8s96,31.2,154.8,63
		v30.6c-54-28.8-126.6-72-164.4-72c-23.4,0-27.6,23.4-27.6,33.6c0,51,91.2,83.4,130.2,105c42.6,24,85.2,72,85.2,138
		c0,72-52.2,127.8-114.6,127.8C183.4,466.2,133,402,133,326.4C133,271.8,160,219,205,198z M253.6,450.6c42.6,0,70.8-42,70.8-91.8
		c0-84-77.4-153.6-88.8-153.6c-9.6,0-57.6,19.8-57.6,117C178,376.2,193,450.6,253.6,450.6z"/>
</g>
</svg>
