<?xml version="1.0" encoding="utf-8"?>
<!-- Generator: Adobe Illustrator 19.0.0, SVG Export Plug-In . SVG Version: 6.00 Build 0)  -->
<svg 
	version="1.1" 
	id="Layer_1" 
	xmlns="http://www.w3.org/2000/svg" 
	xmlns:xlink="http://www.w3.org/1999/xlink" 
	x="0px" 
	y="0px"
	viewBox="0 0 300 540" 
	enable-background="new 0 0 300 540" 
	xml:space="preserve"
>
	<polygon id="G" points="260,510 230,480 70,480 40,510 70,540 230,540 "></polygon>
	<polygon id="F" points="270,280 240,310 240,470 270,500 300,470 300,310 "></polygon>
	<polygon id="E" points="30,280 0,310 0,470 30,500 60,470 60,310 "></polygon>
	<polygon id="D" points="260,270 230,240 70,240 40,270 70,300 230,300 "></polygon>
	<polygon id="C" points="270,40 240,70 240,230 270,260 300,230 300,70 "></polygon>
	<polygon id="B" points="30,40 0,70 0,230 30,260 60,230 60,70 "></polygon>
	<polygon id="A" points="260,30 230,0 70,0 40,30 70,60 230,60 "></polygon>
</svg>