<?xml version="1.0" encoding="utf-8"?>
<!-- Generator: Adobe Illustrator 19.0.0, SVG Export Plug-In . SVG Version: 6.00 Build 0)  -->
<svg version="1.1" xmlns="http://www.w3.org/2000/svg" xmlns:xlink="http://www.w3.org/1999/xlink" x="0px" y="0px"
	 viewBox="-1129 991 1970 540" style="enable-background:new -1129 991 1970 540;" xml:space="preserve">
<g id="h1">
	<polygon id="0-6" points="-869,1501 -899,1471 -1059,1471 -1089,1501 -1059,1531 -899,1531 	"/>
	<polygon id="0-5" points="-859,1271 -889,1301 -889,1461 -859,1491 -829,1461 -829,1301 	"/>
	<polygon id="0-4" points="-1099,1271 -1129,1301 -1129,1461 -1099,1491 -1069,1461 -1069,1301 	"/>
	<polygon id="0-3" points="-869,1261 -899,1231 -1059,1231 -1089,1261 -1059,1291 -899,1291 	"/>
	<polygon id="0-2" points="-859,1031 -889,1061 -889,1221 -859,1251 -829,1221 -829,1061 	"/>
	<polygon id="0-1" points="-1099,1031 -1129,1061 -1129,1221 -1099,1251 -1069,1221 -1069,1061 	"/>
	<polygon id="0-0" points="-869,1021 -899,991 -1059,991 -1089,1021 -1059,1051 -899,1051 	"/>
</g>
<g id="h2">
	<polygon id="1-6" points="-519,1501 -549,1471 -709,1471 -739,1501 -709,1531 -549,1531 	"/>
	<polygon id="1-5" points="-509,1271 -539,1301 -539,1461 -509,1491 -479,1461 -479,1301 	"/>
	<polygon id="1-4" points="-749,1271 -779,1301 -779,1461 -749,1491 -719,1461 -719,1301 	"/>
	<polygon id="1-3" points="-519,1261 -549,1231 -709,1231 -739,1261 -709,1291 -549,1291 	"/>
	<polygon id="1-2" points="-509,1031 -539,1061 -539,1221 -509,1251 -479,1221 -479,1061 	"/>
	<polygon id="1-1" points="-749,1031 -779,1061 -779,1221 -749,1251 -719,1221 -719,1061 	"/>
	<polygon id="1-0" points="-519,1021 -549,991 -709,991 -739,1021 -709,1051 -549,1051 	"/>
</g>
<g id="m1">
	<polygon id="2-6" points="-69,1501 -99,1471 -259,1471 -289,1501 -259,1531 -99,1531 	"/>
	<polygon id="2-5" points="-59,1271 -89,1301 -89,1461 -59,1491 -29,1461 -29,1301 	"/>
	<polygon id="2-4" points="-299,1271 -329,1301 -329,1461 -299,1491 -269,1461 -269,1301 	"/>
	<polygon id="2-3" points="-69,1261 -99,1231 -259,1231 -289,1261 -259,1291 -99,1291 	"/>
	<polygon id="2-2" points="-59,1031 -89,1061 -89,1221 -59,1251 -29,1221 -29,1061 	"/>
	<polygon id="2-1" points="-299,1031 -329,1061 -329,1221 -299,1251 -269,1221 -269,1061 	"/>
	<polygon id="2-0" points="-69,1021 -99,991 -259,991 -289,1021 -259,1051 -99,1051 	"/>
</g>
<g id="m2">
	<polygon id="3-6" points="281,1501 251,1471 91,1471 61,1501 91,1531 251,1531 	"/>
	<polygon id="3-5" points="291,1271 261,1301 261,1461 291,1491 321,1461 321,1301 	"/>
	<polygon id="3-4" points="51,1271 21,1301 21,1461 51,1491 81,1461 81,1301 	"/>
	<polygon id="3-3" points="281,1261 251,1231 91,1231 61,1261 91,1291 251,1291 	"/>
	<polygon id="3-2" points="291,1031 261,1061 261,1221 291,1251 321,1221 321,1061 	"/>
	<polygon id="3-1" points="51,1031 21,1061 21,1221 51,1251 81,1221 81,1061 	"/>
	<polygon id="3-0" points="281,1021 251,991 91,991 61,1021 91,1051 251,1051 	"/>
</g>
<g id="s1">
	<polygon id="4-6" points="401,1511 421,1531 541,1531 561,1511 541,1491 421,1491 	"/>
	<polygon id="4-5" points="571,1341 551,1361 551,1481 571,1501 591,1481 591,1361 	"/>
	<polygon id="4-4" points="391,1341 371,1361 371,1481 391,1501 411,1481 411,1361 	"/>
	<polygon id="4-3" points="401,1331 421,1351 541,1351 561,1331 541,1311 421,1311 	"/>
	<polygon id="4-2" points="571,1161 551,1181 551,1301 571,1321 591,1301 591,1181 	"/>
	<polygon id="4-1" points="391,1161 371,1181 371,1301 391,1321 411,1301 411,1181 	"/>
	<polygon id="4-0" points="401,1151 421,1171 541,1171 561,1151 541,1131 421,1131 	"/>
</g>
<g id="s2">
	<polygon id="5-6" points="651,1511 671,1531 791,1531 811,1511 791,1491 671,1491 	"/>
	<polygon id="5-5" points="821,1341 801,1361 801,1481 821,1501 841,1481 841,1361 	"/>
	<polygon id="5-4" points="641,1341 621,1361 621,1481 641,1501 661,1481 661,1361 	"/>
	<polygon id="5-3" points="651,1331 671,1351 791,1351 811,1331 791,1311 671,1311 	"/>
	<polygon id="5-2" points="821,1161 801,1181 801,1301 821,1321 841,1301 841,1181 	"/>
	<polygon id="5-1" points="641,1161 621,1181 621,1301 641,1321 661,1301 661,1181 	"/>
	<polygon id="5-0" points="651,1151 671,1171 791,1171 811,1151 791,1131 671,1131 	"/>
</g>
<g id="dots">
	<rect id="dot-1" x="-429" y="1151" width="50" height="50"/>
	<rect id="dot-0" x="-429" y="1321" width="50" height="50"/>
</g>
</svg>
